<svg width="512" height="512" viewBox="0 0 24 24" fill="none" xmlns="http://www.w3.org/2000/svg">
    <path fill-rule="evenodd" clip-rule="evenodd" d="M23.471 12.247C23.471 11.3979 23.3948 10.5814 23.2533 9.79761H11.9751V14.4297H18.4198C18.1422 15.9266 17.2985 17.1948 16.0302 18.044V21.0486H19.9003C22.1647 18.9639 23.471 15.8939 23.471 12.247Z" fill="#4285F4"/>
    <path fill-rule="evenodd" clip-rule="evenodd" d="M11.9747 23.9497C15.2079 23.9497 17.9186 22.8774 19.8999 21.0485L16.0298 18.0439C14.9575 18.7624 13.5858 19.1869 11.9747 19.1869C8.85574 19.1869 6.21581 17.0804 5.27415 14.25H1.27344V17.3526C3.24386 21.2662 7.29355 23.9497 11.9747 23.9497Z" fill="#34A853"/>
    <path fill-rule="evenodd" clip-rule="evenodd" d="M5.27441 14.2504C5.03491 13.5319 4.89883 12.7644 4.89883 11.9751C4.89883 11.1859 5.03491 10.4184 5.27441 9.69988V6.59729H1.2737C0.462667 8.2139 0 10.0428 0 11.9751C0 13.9074 0.462667 15.7363 1.2737 17.3529L5.27441 14.2504Z" fill="#FBBC05"/>
    <path fill-rule="evenodd" clip-rule="evenodd" d="M11.9747 4.76275C13.7328 4.76275 15.3113 5.36694 16.5523 6.55355L19.987 3.11892C17.9131 1.18661 15.2024 0 11.9747 0C7.29356 0 3.24386 2.68347 1.27344 6.59709L5.27415 9.69969C6.21581 6.86925 8.85574 4.76275 11.9747 4.76275Z" fill="#EA4335"/>
</svg>
