<svg width="512" height="512" viewBox="0 0 30 30" fill="none" xmlns="http://www.w3.org/2000/svg">
    <path d="M27.5 15C27.5 21.9 21.9 27.5 15 27.5C9.75625 27.5 5.26875 24.275 3.41875 19.7C3.3625 19.575 3.31875 19.45 3.26875 19.325C3.225 19.2062 3.18125 19.0812 3.14375 18.9562C2.725 17.7125 2.5 16.3812 2.5 15C2.5 14.8937 2.5 14.7812 2.5125 14.675C2.50625 14.5687 2.5125 14.4562 2.51875 14.35C2.85625 7.75 8.3125 2.5 15 2.5C21.9 2.5 27.5 8.09375 27.5 15Z" fill="url(#paint0_linear_110_27)"/>
    <path d="M17.8125 13.75C19.0206 13.75 20 12.7706 20 11.5625C20 10.3544 19.0206 9.375 17.8125 9.375C16.6044 9.375 15.625 10.3544 15.625 11.5625C15.625 12.7706 16.6044 13.75 17.8125 13.75Z" fill="white"/>
    <path opacity="0.07" d="M17.8125 9.0625C16.4313 9.0625 15.3125 10.1813 15.3125 11.5625C15.3125 12.9438 16.4313 14.0625 17.8125 14.0625C19.1938 14.0625 20.3125 12.9438 20.3125 11.5625C20.3125 10.1813 19.1938 9.0625 17.8125 9.0625ZM17.8125 13.75C16.6063 13.75 15.625 12.7688 15.625 11.5625C15.625 10.3563 16.6063 9.375 17.8125 9.375C19.0188 9.375 20 10.3563 20 11.5625C20 12.7688 19.0188 13.75 17.8125 13.75Z" fill="black"/>
    <path d="M17.8125 6.25C14.8813 6.25 12.5 8.63125 12.5 11.5625C12.5 11.675 12.5125 11.7813 12.5188 11.8875L10.625 15C9.33125 15 8.175 15.5625 7.375 16.45L2.5 15C2.5 16.3813 2.725 17.7125 3.14375 18.9563L6.29375 19.9625C6.58125 22.1 8.40625 23.75 10.625 23.75C13.0437 23.75 15 21.7937 15 19.375C15 19.1438 14.975 18.9187 14.9438 18.7L18.1062 16.8625C20.9 16.7062 23.125 14.3938 23.125 11.5625C23.125 8.63125 20.7437 6.25 17.8125 6.25ZM10.625 22.5C9.2625 22.5 8.1125 21.6188 7.6875 20.4063L10.0312 21.15L10.0375 21.1438C10.0375 21.15 10.0437 21.15 10.05 21.15C10.1375 21.175 10.2188 21.2 10.3062 21.2188C10.4125 21.2375 10.5188 21.25 10.625 21.25C11.6625 21.25 12.5 20.4125 12.5 19.375C12.5 18.5625 11.9688 17.8688 11.2375 17.6125C11.2312 17.6062 11.2188 17.5938 11.2188 17.5938L8.775 16.8687C9.29375 16.4875 9.93125 16.25 10.625 16.25C12.35 16.25 13.75 17.65 13.75 19.375C13.75 21.1 12.35 22.5 10.625 22.5ZM17.8125 15C15.9125 15 14.375 13.4625 14.375 11.5625C14.375 9.6625 15.9125 8.125 17.8125 8.125C19.7125 8.125 21.25 9.6625 21.25 11.5625C21.25 13.4625 19.7125 15 17.8125 15Z" fill="white"/>
    <path opacity="0.05" d="M20.8749 10.9312C20.8311 10.7312 20.7686 10.5375 20.6936 10.35C20.6561 10.2562 20.6061 10.1625 20.5624 10.075C20.2686 9.54375 19.8311 9.10625 19.2999 8.8125C19.2124 8.76875 19.1186 8.71875 19.0249 8.68125C18.8374 8.60625 18.6436 8.54375 18.4436 8.5C18.2374 8.4625 18.0249 8.4375 17.8124 8.4375C17.5999 8.4375 17.3874 8.4625 17.1811 8.5C16.9811 8.54375 16.7874 8.60625 16.5999 8.68125C16.5061 8.71875 16.4124 8.76875 16.3249 8.8125C15.7936 9.10625 15.3561 9.54375 15.0624 10.075C15.0186 10.1625 14.9686 10.2562 14.9311 10.35C14.8561 10.5375 14.7936 10.7312 14.7499 10.9312C14.7124 11.1375 14.6874 11.35 14.6874 11.5625C14.6874 11.775 14.7124 11.9875 14.7499 12.1938C14.7936 12.3938 14.8561 12.5875 14.9311 12.775C14.9686 12.8688 15.0186 12.9625 15.0624 13.05C15.3561 13.5812 15.7936 14.0188 16.3249 14.3125C16.4124 14.3562 16.5061 14.4062 16.5999 14.4438C16.7874 14.5188 16.9811 14.5813 17.1811 14.625C17.3874 14.6625 17.5999 14.6875 17.8124 14.6875C18.0249 14.6875 18.2374 14.6625 18.4436 14.625C18.6436 14.5813 18.8374 14.5188 19.0249 14.4438C19.1186 14.4062 19.2124 14.3562 19.2999 14.3125C19.8311 14.0188 20.2686 13.5812 20.5624 13.05C20.6061 12.9625 20.6561 12.8688 20.6936 12.775C20.7686 12.5875 20.8311 12.3938 20.8749 12.1938C20.9124 11.9875 20.9374 11.775 20.9374 11.5625C20.9374 11.35 20.9124 11.1375 20.8749 10.9312ZM17.8124 14.0625C16.4311 14.0625 15.3124 12.9437 15.3124 11.5625C15.3124 10.1813 16.4311 9.0625 17.8124 9.0625C19.1936 9.0625 20.3124 10.1813 20.3124 11.5625C20.3124 12.9437 19.1936 14.0625 17.8124 14.0625ZM10.6249 16.5625C10.2561 16.5625 9.89985 16.6375 9.56235 16.775L11.3061 17.2937L11.3811 17.3312L11.3874 17.3375C12.2436 17.6562 12.8124 18.4688 12.8124 19.375C12.8124 20.5813 11.8311 21.5625 10.6249 21.5625C10.5061 21.5625 10.3811 21.55 10.2561 21.525H10.2374L10.2311 21.5438L9.93735 21.45L8.2936 20.925C8.8061 21.7 9.67485 22.1875 10.6249 22.1875C12.1749 22.1875 13.4374 20.925 13.4374 19.375C13.4374 17.825 12.1749 16.5625 10.6249 16.5625ZM10.6249 16.5625C10.2561 16.5625 9.89985 16.6375 9.56235 16.775L11.3061 17.2937L11.3811 17.3312L11.3874 17.3375C12.2436 17.6562 12.8124 18.4688 12.8124 19.375C12.8124 20.5813 11.8311 21.5625 10.6249 21.5625C10.5061 21.5625 10.3811 21.55 10.2561 21.525H10.2374L10.2311 21.5438L9.93735 21.45L8.2936 20.925C8.8061 21.7 9.67485 22.1875 10.6249 22.1875C12.1749 22.1875 13.4374 20.925 13.4374 19.375C13.4374 17.825 12.1749 16.5625 10.6249 16.5625ZM17.8124 5.625C14.5374 5.625 11.8749 8.2875 11.8749 11.5625C11.8749 11.6188 11.8749 11.675 11.8811 11.7313L10.2686 14.3875C9.1186 14.4688 8.0311 14.95 7.1936 15.7438L2.6811 14.4L2.5186 14.35C2.51235 14.4562 2.5061 14.5687 2.51235 14.675L2.58735 14.7L7.2811 16.1C8.1186 15.2438 9.2561 14.7375 10.4499 14.6938L12.1999 11.8125C12.1936 11.7312 12.1874 11.6438 12.1874 11.5625C12.1874 8.4625 14.7124 5.9375 17.8124 5.9375C20.9124 5.9375 23.4374 8.4625 23.4374 11.5625C23.4374 14.5188 21.1436 16.9625 18.1999 17.1687L15.2811 18.8688C15.2999 19.0438 15.3124 19.2125 15.3124 19.375C15.3124 21.9625 13.2124 24.0625 10.6249 24.0625C8.3561 24.0625 6.4061 22.4125 6.01235 20.2L3.2686 19.325C3.3186 19.45 3.36235 19.575 3.4186 19.7L5.7436 20.4437C6.23735 22.7125 8.2686 24.375 10.6249 24.375C13.3811 24.375 15.6249 22.1313 15.6249 19.375C15.6249 19.2625 15.6186 19.15 15.6124 19.0375L18.2936 17.475C21.3686 17.225 23.7499 14.6562 23.7499 11.5625C23.7499 8.2875 21.0874 5.625 17.8124 5.625ZM10.6249 21.5625C10.5061 21.5625 10.3811 21.55 10.2561 21.525H10.2374L10.2311 21.5438L9.93735 21.45L8.2936 20.925C8.8061 21.7 9.67485 22.1875 10.6249 22.1875C12.1749 22.1875 13.4374 20.925 13.4374 19.375C13.4374 17.825 12.1749 16.5625 10.6249 16.5625C10.2561 16.5625 9.89985 16.6375 9.56235 16.775L11.3061 17.2937L11.3811 17.3312L11.3874 17.3375C12.2436 17.6562 12.8124 18.4688 12.8124 19.375C12.8124 20.5813 11.8311 21.5625 10.6249 21.5625ZM10.6249 16.5625C10.2561 16.5625 9.89985 16.6375 9.56235 16.775L11.3061 17.2937L11.3811 17.3312L11.3874 17.3375C12.2436 17.6562 12.8124 18.4688 12.8124 19.375C12.8124 20.5813 11.8311 21.5625 10.6249 21.5625C10.5061 21.5625 10.3811 21.55 10.2561 21.525H10.2374L10.2311 21.5438L9.93735 21.45L8.2936 20.925C8.8061 21.7 9.67485 22.1875 10.6249 22.1875C12.1749 22.1875 13.4374 20.925 13.4374 19.375C13.4374 17.825 12.1749 16.5625 10.6249 16.5625ZM10.6249 16.5625C10.2561 16.5625 9.89985 16.6375 9.56235 16.775L11.3061 17.2937L11.3811 17.3312L11.3874 17.3375C12.2436 17.6562 12.8124 18.4688 12.8124 19.375C12.8124 20.5813 11.8311 21.5625 10.6249 21.5625C10.5061 21.5625 10.3811 21.55 10.2561 21.525H10.2374L10.2311 21.5438L9.93735 21.45L8.2936 20.925C8.8061 21.7 9.67485 22.1875 10.6249 22.1875C12.1749 22.1875 13.4374 20.925 13.4374 19.375C13.4374 17.825 12.1749 16.5625 10.6249 16.5625ZM10.6249 16.5625C10.2561 16.5625 9.89985 16.6375 9.56235 16.775L11.3061 17.2937L11.3811 17.3312L11.3874 17.3375C12.2436 17.6562 12.8124 18.4688 12.8124 19.375C12.8124 20.5813 11.8311 21.5625 10.6249 21.5625C10.5061 21.5625 10.3811 21.55 10.2561 21.525H10.2374L10.2311 21.5438L9.93735 21.45L8.2936 20.925C8.8061 21.7 9.67485 22.1875 10.6249 22.1875C12.1749 22.1875 13.4374 20.925 13.4374 19.375C13.4374 17.825 12.1749 16.5625 10.6249 16.5625ZM10.6249 16.5625C10.2561 16.5625 9.89985 16.6375 9.56235 16.775L11.3061 17.2937L11.3811 17.3312L11.3874 17.3375C12.2436 17.6562 12.8124 18.4688 12.8124 19.375C12.8124 20.5813 11.8311 21.5625 10.6249 21.5625C10.5061 21.5625 10.3811 21.55 10.2561 21.525H10.2374L10.2311 21.5438L9.93735 21.45L8.2936 20.925C8.8061 21.7 9.67485 22.1875 10.6249 22.1875C12.1749 22.1875 13.4374 20.925 13.4374 19.375C13.4374 17.825 12.1749 16.5625 10.6249 16.5625Z" fill="black"/>
    <path opacity="0.07" d="M17.8125 5.9375C14.7125 5.9375 12.1875 8.4625 12.1875 11.5625C12.1875 11.6438 12.1938 11.7312 12.2 11.8125L10.45 14.6938C9.25625 14.7375 8.11875 15.2438 7.28125 16.1L2.5875 14.7L2.5125 14.675C2.5 14.7812 2.5 14.8938 2.5 15L7.375 16.45C8.175 15.5625 9.33125 15 10.625 15L12.5188 11.8875C12.5125 11.7813 12.5 11.675 12.5 11.5625C12.5 8.63125 14.8813 6.25 17.8125 6.25C20.7438 6.25 23.125 8.63125 23.125 11.5625C23.125 14.3938 20.9 16.7062 18.1063 16.8625L14.9438 18.7C14.975 18.9187 15 19.1438 15 19.375C15 21.7937 13.0438 23.75 10.625 23.75C8.40625 23.75 6.58125 22.1 6.29375 19.9625L3.14375 18.9563C3.18125 19.0813 3.225 19.2063 3.26875 19.325L6.0125 20.2C6.40625 22.4125 8.35625 24.0625 10.625 24.0625C13.2125 24.0625 15.3125 21.9625 15.3125 19.375C15.3125 19.2125 15.3 19.0438 15.2813 18.8688L18.2 17.1687C21.1438 16.9625 23.4375 14.5188 23.4375 11.5625C23.4375 8.4625 20.9125 5.9375 17.8125 5.9375ZM17.8125 15C19.7125 15 21.25 13.4625 21.25 11.5625C21.25 9.6625 19.7125 8.125 17.8125 8.125C15.9125 8.125 14.375 9.6625 14.375 11.5625C14.375 13.4625 15.9125 15 17.8125 15ZM14.9313 12.775C14.85 12.5875 14.7938 12.3938 14.75 12.1938C14.7125 11.9875 14.6875 11.775 14.6875 11.5625C14.6875 11.35 14.7125 11.1375 14.75 10.9312C14.7938 10.7312 14.85 10.5375 14.9313 10.35C14.9688 10.2562 15.0188 10.1625 15.0625 10.075C15.3563 9.54375 15.7938 9.10625 16.325 8.8125C16.4125 8.76875 16.5063 8.71875 16.6 8.68125C16.7875 8.6 16.9813 8.54375 17.1813 8.5C17.3875 8.4625 17.6 8.4375 17.8125 8.4375C18.025 8.4375 18.2375 8.4625 18.4438 8.5C18.6438 8.54375 18.8375 8.6 19.025 8.68125C19.1188 8.71875 19.2125 8.76875 19.3 8.8125C19.8313 9.10625 20.2688 9.54375 20.5625 10.075C20.6063 10.1625 20.6563 10.2562 20.6938 10.35C20.775 10.5375 20.8313 10.7312 20.875 10.9312C20.9125 11.1375 20.9375 11.35 20.9375 11.5625C20.9375 11.775 20.9125 11.9875 20.875 12.1938C20.8313 12.3938 20.775 12.5875 20.6938 12.775C20.6563 12.8688 20.6063 12.9625 20.5625 13.05C20.2688 13.5812 19.8313 14.0188 19.3 14.3125C19.2125 14.3562 19.1188 14.4062 19.025 14.4438C18.8375 14.525 18.6438 14.5813 18.4438 14.625C18.2375 14.6625 18.025 14.6875 17.8125 14.6875C17.6 14.6875 17.3875 14.6625 17.1813 14.625C16.9813 14.5813 16.7875 14.525 16.6 14.4438C16.5063 14.4062 16.4125 14.3562 16.325 14.3125C15.7938 14.0188 15.3563 13.5812 15.0625 13.05C15.0188 12.9625 14.9688 12.8688 14.9313 12.775ZM10.625 21.25C10.5188 21.25 10.4125 21.2375 10.3063 21.2188C10.2188 21.2 10.1375 21.175 10.05 21.15C10.0438 21.15 10.0375 21.15 10.0375 21.1438L10.0313 21.15L7.6875 20.4063C8.1125 21.6188 9.2625 22.5 10.625 22.5C12.35 22.5 13.75 21.1 13.75 19.375C13.75 17.65 12.35 16.25 10.625 16.25C9.93125 16.25 9.29375 16.4875 8.775 16.8687L11.2188 17.5938C11.2188 17.5938 11.2313 17.6062 11.2375 17.6125C11.9688 17.8688 12.5 18.5625 12.5 19.375C12.5 20.4125 11.6625 21.25 10.625 21.25ZM12.8125 19.375C12.8125 18.4688 12.2438 17.6562 11.3875 17.3375L11.3813 17.3312L11.3063 17.2937L9.5625 16.775C9.9 16.6375 10.2563 16.5625 10.625 16.5625C12.175 16.5625 13.4375 17.825 13.4375 19.375C13.4375 20.925 12.175 22.1875 10.625 22.1875C9.675 22.1875 8.80625 21.7 8.29375 20.925L9.9375 21.45L10.2313 21.5438L10.2375 21.525H10.2563C10.3813 21.55 10.5063 21.5625 10.625 21.5625C11.8313 21.5625 12.8125 20.5813 12.8125 19.375ZM10.625 16.25C9.93125 16.25 9.29375 16.4875 8.775 16.8687L11.2188 17.5938C11.2188 17.5938 11.2313 17.6062 11.2375 17.6125C11.9688 17.8688 12.5 18.5625 12.5 19.375C12.5 20.4125 11.6625 21.25 10.625 21.25C10.5188 21.25 10.4125 21.2375 10.3063 21.2188C10.2188 21.2 10.1375 21.175 10.05 21.15C10.0438 21.15 10.0375 21.15 10.0375 21.1438L10.0313 21.15L7.6875 20.4063C8.1125 21.6188 9.2625 22.5 10.625 22.5C12.35 22.5 13.75 21.1 13.75 19.375C13.75 17.65 12.35 16.25 10.625 16.25ZM10.625 22.1875C9.675 22.1875 8.80625 21.7 8.29375 20.925L9.9375 21.45L10.2313 21.5438L10.2375 21.525H10.2563C10.3813 21.55 10.5063 21.5625 10.625 21.5625C11.8313 21.5625 12.8125 20.5813 12.8125 19.375C12.8125 18.4688 12.2438 17.6562 11.3875 17.3375L11.3813 17.3312L11.3063 17.2937L9.5625 16.775C9.9 16.6375 10.2563 16.5625 10.625 16.5625C12.175 16.5625 13.4375 17.825 13.4375 19.375C13.4375 20.925 12.175 22.1875 10.625 22.1875ZM17.8125 8.125C15.9125 8.125 14.375 9.6625 14.375 11.5625C14.375 13.4625 15.9125 15 17.8125 15C19.7125 15 21.25 13.4625 21.25 11.5625C21.25 9.6625 19.7125 8.125 17.8125 8.125ZM20.6938 12.775C20.6563 12.8688 20.6063 12.9625 20.5625 13.05C20.2688 13.5812 19.8313 14.0188 19.3 14.3125C19.2125 14.3562 19.1188 14.4062 19.025 14.4438C18.8375 14.525 18.6438 14.5813 18.4438 14.625C18.2375 14.6625 18.025 14.6875 17.8125 14.6875C17.6 14.6875 17.3875 14.6625 17.1813 14.625C16.9813 14.5813 16.7875 14.525 16.6 14.4438C16.5063 14.4062 16.4125 14.3562 16.325 14.3125C15.7938 14.0188 15.3563 13.5812 15.0625 13.05C15.0188 12.9625 14.9688 12.8688 14.9313 12.775C14.85 12.5875 14.7938 12.3938 14.75 12.1938C14.7125 11.9875 14.6875 11.775 14.6875 11.5625C14.6875 11.35 14.7125 11.1375 14.75 10.9312C14.7938 10.7312 14.85 10.5375 14.9313 10.35C14.9688 10.2562 15.0188 10.1625 15.0625 10.075C15.3563 9.54375 15.7938 9.10625 16.325 8.8125C16.4125 8.76875 16.5063 8.71875 16.6 8.68125C16.7875 8.6 16.9813 8.54375 17.1813 8.5C17.3875 8.4625 17.6 8.4375 17.8125 8.4375C18.025 8.4375 18.2375 8.4625 18.4438 8.5C18.6438 8.54375 18.8375 8.6 19.025 8.68125C19.1188 8.71875 19.2125 8.76875 19.3 8.8125C19.8313 9.10625 20.2688 9.54375 20.5625 10.075C20.6063 10.1625 20.6563 10.2562 20.6938 10.35C20.775 10.5375 20.8313 10.7312 20.875 10.9312C20.9125 11.1375 20.9375 11.35 20.9375 11.5625C20.9375 11.775 20.9125 11.9875 20.875 12.1938C20.8313 12.3938 20.775 12.5875 20.6938 12.775ZM17.8125 8.125C15.9125 8.125 14.375 9.6625 14.375 11.5625C14.375 13.4625 15.9125 15 17.8125 15C19.7125 15 21.25 13.4625 21.25 11.5625C21.25 9.6625 19.7125 8.125 17.8125 8.125ZM20.6938 12.775C20.6563 12.8688 20.6063 12.9625 20.5625 13.05C20.2688 13.5812 19.8313 14.0188 19.3 14.3125C19.2125 14.3562 19.1188 14.4062 19.025 14.4438C18.8375 14.525 18.6438 14.5813 18.4438 14.625C18.2375 14.6625 18.025 14.6875 17.8125 14.6875C17.6 14.6875 17.3875 14.6625 17.1813 14.625C16.9813 14.5813 16.7875 14.525 16.6 14.4438C16.5063 14.4062 16.4125 14.3562 16.325 14.3125C15.7938 14.0188 15.3563 13.5812 15.0625 13.05C15.0188 12.9625 14.9688 12.8688 14.9313 12.775C14.85 12.5875 14.7938 12.3938 14.75 12.1938C14.7125 11.9875 14.6875 11.775 14.6875 11.5625C14.6875 11.35 14.7125 11.1375 14.75 10.9312C14.7938 10.7312 14.85 10.5375 14.9313 10.35C14.9688 10.2562 15.0188 10.1625 15.0625 10.075C15.3563 9.54375 15.7938 9.10625 16.325 8.8125C16.4125 8.76875 16.5063 8.71875 16.6 8.68125C16.7875 8.6 16.9813 8.54375 17.1813 8.5C17.3875 8.4625 17.6 8.4375 17.8125 8.4375C18.025 8.4375 18.2375 8.4625 18.4438 8.5C18.6438 8.54375 18.8375 8.6 19.025 8.68125C19.1188 8.71875 19.2125 8.76875 19.3 8.8125C19.8313 9.10625 20.2688 9.54375 20.5625 10.075C20.6063 10.1625 20.6563 10.2562 20.6938 10.35C20.775 10.5375 20.8313 10.7312 20.875 10.9312C20.9125 11.1375 20.9375 11.35 20.9375 11.5625C20.9375 11.775 20.9125 11.9875 20.875 12.1938C20.8313 12.3938 20.775 12.5875 20.6938 12.775ZM10.625 16.25C9.93125 16.25 9.29375 16.4875 8.775 16.8687L11.2188 17.5938C11.2188 17.5938 11.2313 17.6062 11.2375 17.6125C11.9688 17.8688 12.5 18.5625 12.5 19.375C12.5 20.4125 11.6625 21.25 10.625 21.25C10.5188 21.25 10.4125 21.2375 10.3063 21.2188C10.2188 21.2 10.1375 21.175 10.05 21.15C10.0438 21.15 10.0375 21.15 10.0375 21.1438L10.0313 21.15L7.6875 20.4063C8.1125 21.6188 9.2625 22.5 10.625 22.5C12.35 22.5 13.75 21.1 13.75 19.375C13.75 17.65 12.35 16.25 10.625 16.25ZM10.625 22.1875C9.675 22.1875 8.80625 21.7 8.29375 20.925L9.9375 21.45L10.2313 21.5438L10.2375 21.525H10.2563C10.3813 21.55 10.5063 21.5625 10.625 21.5625C11.8313 21.5625 12.8125 20.5813 12.8125 19.375C12.8125 18.4688 12.2438 17.6562 11.3875 17.3375L11.3813 17.3312L11.3063 17.2937L9.5625 16.775C9.9 16.6375 10.2563 16.5625 10.625 16.5625C12.175 16.5625 13.4375 17.825 13.4375 19.375C13.4375 20.925 12.175 22.1875 10.625 22.1875Z" fill="black"/>
    <path opacity="0.07" d="M17.8125 8.125C15.9125 8.125 14.375 9.6625 14.375 11.5625C14.375 13.4625 15.9125 15 17.8125 15C19.7125 15 21.25 13.4625 21.25 11.5625C21.25 9.6625 19.7125 8.125 17.8125 8.125ZM20.6938 12.775C20.6563 12.8688 20.6063 12.9625 20.5625 13.05C20.2688 13.5813 19.8313 14.0188 19.3 14.3125C19.2125 14.3563 19.1188 14.4063 19.025 14.4438C18.8375 14.525 18.6438 14.5813 18.4438 14.625C18.2375 14.6625 18.025 14.6875 17.8125 14.6875C17.6 14.6875 17.3875 14.6625 17.1813 14.625C16.9813 14.5813 16.7875 14.525 16.6 14.4438C16.5062 14.4063 16.4125 14.3563 16.325 14.3125C15.7938 14.0188 15.3563 13.5813 15.0625 13.05C15.0188 12.9625 14.9687 12.8688 14.9312 12.775C14.85 12.5875 14.7938 12.3938 14.75 12.1938C14.7125 11.9875 14.6875 11.775 14.6875 11.5625C14.6875 11.35 14.7125 11.1375 14.75 10.9313C14.7938 10.7313 14.85 10.5375 14.9312 10.35C14.9687 10.2562 15.0188 10.1625 15.0625 10.075C15.3563 9.54375 15.7938 9.10625 16.325 8.8125C16.4125 8.76875 16.5062 8.71875 16.6 8.68125C16.7875 8.6 16.9813 8.54375 17.1813 8.5C17.3875 8.4625 17.6 8.4375 17.8125 8.4375C18.025 8.4375 18.2375 8.4625 18.4438 8.5C18.6438 8.54375 18.8375 8.6 19.025 8.68125C19.1188 8.71875 19.2125 8.76875 19.3 8.8125C19.8313 9.10625 20.2688 9.54375 20.5625 10.075C20.6063 10.1625 20.6563 10.2562 20.6938 10.35C20.775 10.5375 20.8313 10.7313 20.875 10.9313C20.9125 11.1375 20.9375 11.35 20.9375 11.5625C20.9375 11.775 20.9125 11.9875 20.875 12.1938C20.8313 12.3938 20.775 12.5875 20.6938 12.775ZM17.8125 8.125C15.9125 8.125 14.375 9.6625 14.375 11.5625C14.375 13.4625 15.9125 15 17.8125 15C19.7125 15 21.25 13.4625 21.25 11.5625C21.25 9.6625 19.7125 8.125 17.8125 8.125ZM20.6938 12.775C20.6563 12.8688 20.6063 12.9625 20.5625 13.05C20.2688 13.5813 19.8313 14.0188 19.3 14.3125C19.2125 14.3563 19.1188 14.4063 19.025 14.4438C18.8375 14.525 18.6438 14.5813 18.4438 14.625C18.2375 14.6625 18.025 14.6875 17.8125 14.6875C17.6 14.6875 17.3875 14.6625 17.1813 14.625C16.9813 14.5813 16.7875 14.525 16.6 14.4438C16.5062 14.4063 16.4125 14.3563 16.325 14.3125C15.7938 14.0188 15.3563 13.5813 15.0625 13.05C15.0188 12.9625 14.9687 12.8688 14.9312 12.775C14.85 12.5875 14.7938 12.3938 14.75 12.1938C14.7125 11.9875 14.6875 11.775 14.6875 11.5625C14.6875 11.35 14.7125 11.1375 14.75 10.9313C14.7938 10.7313 14.85 10.5375 14.9312 10.35C14.9687 10.2562 15.0188 10.1625 15.0625 10.075C15.3563 9.54375 15.7938 9.10625 16.325 8.8125C16.4125 8.76875 16.5062 8.71875 16.6 8.68125C16.7875 8.6 16.9813 8.54375 17.1813 8.5C17.3875 8.4625 17.6 8.4375 17.8125 8.4375C18.025 8.4375 18.2375 8.4625 18.4438 8.5C18.6438 8.54375 18.8375 8.6 19.025 8.68125C19.1188 8.71875 19.2125 8.76875 19.3 8.8125C19.8313 9.10625 20.2688 9.54375 20.5625 10.075C20.6063 10.1625 20.6563 10.2562 20.6938 10.35C20.775 10.5375 20.8313 10.7313 20.875 10.9313C20.9125 11.1375 20.9375 11.35 20.9375 11.5625C20.9375 11.775 20.9125 11.9875 20.875 12.1938C20.8313 12.3938 20.775 12.5875 20.6938 12.775ZM17.8125 8.125C15.9125 8.125 14.375 9.6625 14.375 11.5625C14.375 13.4625 15.9125 15 17.8125 15C19.7125 15 21.25 13.4625 21.25 11.5625C21.25 9.6625 19.7125 8.125 17.8125 8.125ZM20.6938 12.775C20.6563 12.8688 20.6063 12.9625 20.5625 13.05C20.2688 13.5813 19.8313 14.0188 19.3 14.3125C19.2125 14.3563 19.1188 14.4063 19.025 14.4438C18.8375 14.525 18.6438 14.5813 18.4438 14.625C18.2375 14.6625 18.025 14.6875 17.8125 14.6875C17.6 14.6875 17.3875 14.6625 17.1813 14.625C16.9813 14.5813 16.7875 14.525 16.6 14.4438C16.5062 14.4063 16.4125 14.3563 16.325 14.3125C15.7938 14.0188 15.3563 13.5813 15.0625 13.05C15.0188 12.9625 14.9687 12.8688 14.9312 12.775C14.85 12.5875 14.7938 12.3938 14.75 12.1938C14.7125 11.9875 14.6875 11.775 14.6875 11.5625C14.6875 11.35 14.7125 11.1375 14.75 10.9313C14.7938 10.7313 14.85 10.5375 14.9312 10.35C14.9687 10.2562 15.0188 10.1625 15.0625 10.075C15.3563 9.54375 15.7938 9.10625 16.325 8.8125C16.4125 8.76875 16.5062 8.71875 16.6 8.68125C16.7875 8.6 16.9813 8.54375 17.1813 8.5C17.3875 8.4625 17.6 8.4375 17.8125 8.4375C18.025 8.4375 18.2375 8.4625 18.4438 8.5C18.6438 8.54375 18.8375 8.6 19.025 8.68125C19.1188 8.71875 19.2125 8.76875 19.3 8.8125C19.8313 9.10625 20.2688 9.54375 20.5625 10.075C20.6063 10.1625 20.6563 10.2562 20.6938 10.35C20.775 10.5375 20.8313 10.7313 20.875 10.9313C20.9125 11.1375 20.9375 11.35 20.9375 11.5625C20.9375 11.775 20.9125 11.9875 20.875 12.1938C20.8313 12.3938 20.775 12.5875 20.6938 12.775Z" fill="black"/>
    <defs>
        <linearGradient id="paint0_linear_110_27" x1="15" y1="27.5" x2="15" y2="2.5" gradientUnits="userSpaceOnUse">
            <stop stop-color="#0176D0"/>
            <stop offset="1" stop-color="#16538C"/>
        </linearGradient>
    </defs>
</svg>
