<svg width="184" height="184" viewBox="0 0 184 184" fill="none" xmlns="http://www.w3.org/2000/svg">
    <path d="M93.4806 99.5469C93.5675 99.4788 93.6481 99.4031 93.7214 99.3205C94.0713 98.9237 94.2632 98.4121 94.2604 97.883C94.2563 97.3794 94.101 96.8886 93.8148 96.4743C93.4933 96.0186 93.0189 95.6934 92.4779 95.5578L92.3809 95.5399L89.9048 87.9714C89.3418 86.2944 88.8375 84.761 88.3918 83.3714C87.9319 81.9339 87.485 80.7181 87.0514 79.7238C86.6834 78.8264 86.2002 77.9808 85.6139 77.2082C84.7945 76.1803 83.9248 75.9647 83.339 75.9647C82.5125 75.9647 81.7542 76.3888 81.0786 77.2261C80.4852 78.0095 79.9903 78.8628 79.6051 79.7669C79.1451 80.7803 78.6779 81.9807 78.1892 83.3607C77.7004 84.7407 77.2261 86.2105 76.705 87.8385L71.0772 105.297C71.0381 105.476 71.0188 105.66 71.0197 105.843C71.0119 106.156 71.0771 106.467 71.2099 106.751C71.3427 107.035 71.5396 107.284 71.7851 107.478C72.197 107.795 72.7031 107.964 73.2226 107.96C73.8515 107.96 74.7715 107.723 75.5693 106.612C75.647 106.503 75.7053 106.382 75.7418 106.253L77.6573 99.9925H88.7261L90.3972 106.486C90.5859 106.901 90.8929 107.251 91.2797 107.492C91.6665 107.733 92.1158 107.855 92.5714 107.841C93.9837 107.841 94.9468 106.993 95.087 105.628C95.1002 105.483 95.0881 105.337 95.0511 105.196L93.4806 99.5469ZM84.162 86.4693L86.5159 93.4663C86.7064 94.0736 86.8753 94.6558 87.0729 95.22H79.314L83.2061 83.6841C83.4864 84.525 83.805 85.451 84.162 86.4621V86.4693Z" fill="#B7B7B7"/>
    <path d="M107.187 97.484C107.248 95.8884 107.306 94.1886 107.363 92.4097L107.643 82.8144C107.661 82.0956 107.676 81.4667 107.687 80.9348C107.855 80.9348 108.046 80.9348 108.24 80.9348C109.095 80.9708 109.836 81.0103 110.468 81.057C111.783 81.1469 112.782 80.367 112.984 78.8253C112.993 78.2492 112.795 77.6891 112.425 77.247C112.056 76.805 111.54 76.5106 110.971 76.4175C110.612 76.3672 110.084 76.3133 109.34 76.2486C108.596 76.1839 105.821 76.2162 101.29 76.3348C98.8315 76.2665 96.5135 76.4355 96.0787 78.1317C95.7193 79.6087 96.2296 80.3383 96.7292 80.6904C97.2536 81.0682 97.905 81.2255 98.544 81.1289C98.9461 81.0829 99.3504 81.0577 99.7551 81.0534L102.131 81.0175H102.968C102.968 81.2259 102.968 81.4487 102.968 81.6931C102.968 82.5053 102.936 83.4505 102.896 84.5394L102.537 94.5012C102.414 97.4864 102.333 99.681 102.292 101.085C102.264 101.897 102.235 102.608 102.206 103.216C100.122 103.18 98.7812 103.166 98.1738 103.166C97.7027 103.161 97.2384 103.279 96.8262 103.507C96.377 103.755 95.8451 104.291 95.8451 105.405C95.8235 105.908 95.9637 107.144 97.7534 107.755C97.8688 107.797 97.9901 107.82 98.1128 107.823L110.515 108.032C110.807 108.049 111.1 108.007 111.376 107.909C111.651 107.811 111.905 107.659 112.121 107.462C112.338 107.265 112.512 107.027 112.635 106.761C112.758 106.495 112.826 106.208 112.836 105.915C112.877 105.603 112.852 105.287 112.765 104.985C112.677 104.683 112.527 104.403 112.326 104.161C112.073 103.896 111.768 103.686 111.429 103.545C111.091 103.404 110.727 103.335 110.36 103.342L106.914 103.292C106.957 102.839 106.989 102.325 107.018 101.753C107.072 100.506 107.133 99.0797 107.187 97.484Z" fill="#B7B7B7"/>
    <path d="M155.21 112.402V104.244C155.207 101.703 154.197 99.2678 152.401 97.4711C150.605 95.6743 148.17 94.6632 145.629 94.6594H127.711V89.337H145.629C148.17 89.3342 150.605 88.3239 152.401 86.5277C154.197 84.7315 155.207 82.2963 155.21 79.7561V71.5983C157.759 71.0079 160.002 69.5003 161.511 67.3628C163.02 65.2253 163.69 62.6072 163.393 60.0077C163.096 57.4081 161.852 55.0087 159.9 53.2668C157.948 51.5248 155.423 50.5621 152.806 50.5621C150.19 50.5621 147.665 51.5248 145.712 53.2668C143.76 55.0087 142.517 57.4081 142.22 60.0077C141.922 62.6072 142.592 65.2253 144.101 67.3628C145.61 69.5003 147.853 71.0079 150.402 71.5983V79.7561C150.401 81.0219 149.898 82.2356 149.003 83.131C148.108 84.0264 146.895 84.5303 145.629 84.5322H127.711V64.9247C127.705 62.639 126.795 60.4485 125.178 58.8322C123.562 57.2159 121.372 56.3054 119.086 56.2997H99.4641V38.3741C99.465 37.1077 99.9685 35.8934 100.864 34.9979C101.759 34.1024 102.974 33.5989 104.24 33.598H112.405C112.996 36.147 114.503 38.3897 116.641 39.8987C118.778 41.4077 121.396 42.0774 123.996 41.7803C126.595 41.4832 128.995 40.24 130.737 38.2877C132.479 36.3353 133.441 33.8103 133.441 31.1938C133.441 28.5773 132.479 26.0522 130.737 24.0999C128.995 22.1475 126.595 20.9043 123.996 20.6072C121.396 20.3101 118.778 20.9799 116.641 22.4888C114.503 23.9978 112.996 26.2405 112.405 28.7895H104.24C101.7 28.7934 99.2644 29.8045 97.4683 31.6012C95.6723 33.3979 94.6621 35.8336 94.6592 38.3741V56.2889H89.3405V38.3741C89.3376 35.833 88.3269 33.3968 86.5301 31.5999C84.7332 29.8031 82.297 28.7924 79.7559 28.7895H71.5945C71.0042 26.2405 69.4965 23.9978 67.359 22.4888C65.2215 20.9799 62.6035 20.3101 60.0039 20.6072C57.4043 20.9043 55.0049 22.1475 53.263 24.0999C51.5211 26.0522 50.5584 28.5773 50.5584 31.1938C50.5584 33.8103 51.5211 36.3353 53.263 38.2877C55.0049 40.24 57.4043 41.4832 60.0039 41.7803C62.6035 42.0774 65.2215 41.4077 67.359 39.8987C69.4965 38.3897 71.0042 36.147 71.5945 33.598H79.7559C81.0223 33.5989 82.2366 34.1024 83.1321 34.9979C84.0276 35.8934 84.5311 37.1077 84.532 38.3741V56.2889H64.9245C62.6388 56.2946 60.4483 57.2051 58.832 58.8214C57.2157 60.4377 56.3052 62.6282 56.2995 64.9139V84.5214H38.3703C37.1042 84.5205 35.8903 84.0169 34.9954 83.1213C34.1005 82.2257 33.5978 81.0114 33.5978 79.7453V71.5875C36.1468 70.9972 38.3895 69.4895 39.8985 67.352C41.4075 65.2145 42.0772 62.5965 41.7801 59.9969C41.483 57.3973 40.2398 54.9979 38.2875 53.256C36.3351 51.5141 33.8101 50.5514 31.1936 50.5514C28.5771 50.5514 26.0521 51.5141 24.0997 53.256C22.1473 54.9979 20.9041 57.3973 20.607 59.9969C20.3099 62.5965 20.9797 65.2145 22.4887 67.352C23.9976 69.4895 26.2403 70.9972 28.7894 71.5875V79.7453C28.7922 82.2855 29.8025 84.7208 31.5987 86.5169C33.3949 88.3131 35.8302 89.3234 38.3703 89.3263H56.2887V94.6594H38.3703C35.8298 94.6632 33.3945 95.6743 31.5985 97.4711C29.8024 99.2678 28.7922 101.703 28.7894 104.244V112.402C26.2403 112.992 23.9976 114.5 22.4887 116.637C20.9797 118.775 20.3099 121.393 20.607 123.992C20.9041 126.592 22.1473 128.991 24.0997 130.733C26.0521 132.475 28.5771 133.438 31.1936 133.438C33.8101 133.438 36.3351 132.475 38.2875 130.733C40.2398 128.991 41.483 126.592 41.7801 123.992C42.0772 121.393 41.4075 118.775 39.8985 116.637C38.3895 114.5 36.1468 112.992 33.5978 112.402V104.244C33.5978 102.978 34.1005 101.764 34.9954 100.868C35.8903 99.9724 37.1042 99.4688 38.3703 99.4678H56.2887V119.075C56.2944 121.361 57.205 123.552 58.8212 125.168C60.4375 126.784 62.628 127.695 64.9137 127.7H84.5212V145.615C84.5203 146.882 84.0168 148.096 83.1213 148.991C82.2258 149.887 81.0116 150.39 79.7451 150.391H71.5945C71.0042 147.842 69.4965 145.6 67.359 144.091C65.2215 142.582 62.6035 141.912 60.0039 142.209C57.4043 142.506 55.0049 143.749 53.263 145.702C51.5211 147.654 50.5584 150.179 50.5584 152.796C50.5584 155.412 51.5211 157.937 53.263 159.889C55.0049 161.842 57.4043 163.085 60.0039 163.382C62.6035 163.679 65.2215 163.009 67.359 161.5C69.4965 159.991 71.0042 157.749 71.5945 155.2H79.7559C82.297 155.197 84.7332 154.186 86.5301 152.389C88.3269 150.592 89.3376 148.156 89.3405 145.615V127.711H94.6592V145.626C94.6621 148.166 95.6723 150.602 97.4683 152.399C99.2644 154.196 101.7 155.207 104.24 155.21H112.405C112.996 157.76 114.503 160.002 116.641 161.511C118.778 163.02 121.396 163.69 123.996 163.393C126.595 163.096 128.995 161.853 130.737 159.9C132.479 157.948 133.441 155.423 133.441 152.806C133.441 150.19 132.479 147.665 130.737 145.712C128.995 143.76 126.595 142.517 123.996 142.22C121.396 141.923 118.778 142.592 116.641 144.101C114.503 145.61 112.996 147.853 112.405 150.402H104.24C102.974 150.401 101.759 149.898 100.864 149.002C99.9685 148.107 99.465 146.892 99.4641 145.626V127.711H119.075C121.361 127.705 123.551 126.795 125.168 125.179C126.784 123.562 127.694 121.372 127.7 119.086V99.4678H145.619C146.884 99.4697 148.098 99.9737 148.992 100.869C149.887 101.764 150.39 102.978 150.391 104.244V112.402C147.842 112.992 145.599 114.5 144.09 116.637C142.581 118.775 141.912 121.393 142.209 123.992C142.506 126.592 143.749 128.991 145.701 130.733C147.654 132.475 150.179 133.438 152.795 133.438C155.412 133.438 157.937 132.475 159.889 130.733C161.842 128.991 163.085 126.592 163.382 123.992C163.679 121.393 163.009 118.775 161.5 116.637C159.991 114.5 157.749 112.992 155.2 112.402H155.21ZM146.945 61.2375C146.945 60.0804 147.288 58.9492 147.931 57.9871C148.574 57.025 149.487 56.2751 150.556 55.8322C151.625 55.3894 152.802 55.2736 153.937 55.4993C155.072 55.7251 156.114 56.2823 156.932 57.1005C157.751 57.9187 158.308 58.9612 158.534 60.0961C158.759 61.231 158.643 62.4074 158.201 63.4765C157.758 64.5455 157.008 65.4593 156.046 66.1021C155.084 66.745 153.952 67.0881 152.795 67.0881C151.246 67.0834 149.762 66.4651 148.667 65.3686C147.573 64.2721 146.957 62.7867 146.955 61.2375H146.945ZM122.762 25.3467C123.92 25.346 125.051 25.6886 126.014 26.3312C126.977 26.9738 127.727 27.8876 128.171 28.9568C128.614 30.026 128.73 31.2026 128.504 32.3379C128.279 33.4731 127.721 34.5159 126.903 35.3344C126.085 36.1528 125.042 36.7101 123.906 36.9357C122.771 37.1614 121.595 37.0452 120.525 36.6019C119.456 36.1587 118.542 35.4082 117.9 34.4455C117.257 33.4829 116.915 32.3512 116.915 31.1938C116.917 29.6436 117.534 28.1575 118.63 27.0614C119.726 25.9653 121.212 25.3486 122.762 25.3467ZM61.2373 37.0444C60.08 37.0451 58.9485 36.7026 57.9859 36.0601C57.0233 35.4177 56.2729 34.5042 55.8295 33.4352C55.3861 32.3662 55.2698 31.1897 55.4951 30.0546C55.7204 28.9194 56.2774 27.8766 57.0955 27.058C57.9135 26.2394 58.956 25.6819 60.091 25.4558C61.226 25.2298 62.4026 25.3454 63.4718 25.7881C64.5411 26.2309 65.4551 26.9808 66.0981 27.943C66.7411 28.9052 67.0844 30.0365 67.0844 31.1938C67.0825 32.7442 66.4659 34.2307 65.3699 35.3274C64.2739 36.4241 62.7878 37.0415 61.2373 37.0444ZM25.3465 61.2375C25.3465 60.0802 25.6898 58.9489 26.3328 57.9867C26.9758 57.0245 27.8898 56.2746 28.9591 55.8319C30.0283 55.3892 31.2049 55.2735 32.3399 55.4996C33.4749 55.7256 34.5174 56.2832 35.3355 57.1018C36.1535 57.9204 36.7105 58.9632 36.9358 60.0983C37.1612 61.2335 37.0448 62.4099 36.6014 63.4789C36.158 64.5479 35.4076 65.4614 34.445 66.1039C33.4824 66.7463 32.3509 67.0888 31.1936 67.0881C29.6428 67.0862 28.1562 66.4691 27.0599 65.3722C25.9637 64.2753 25.3475 62.7883 25.3465 61.2375ZM37.0442 122.763C37.0442 123.92 36.7011 125.051 36.0582 126.013C35.4153 126.975 34.5016 127.725 33.4325 128.168C32.3635 128.611 31.1871 128.726 30.0522 128.501C28.9173 128.275 27.8748 127.718 27.0566 126.9C26.2383 126.081 25.6811 125.039 25.4554 123.904C25.2296 122.769 25.3455 121.593 25.7883 120.524C26.2311 119.455 26.981 118.541 27.9431 117.898C28.9053 117.255 30.0364 116.912 31.1936 116.912C32.7447 116.914 34.2317 117.531 35.3285 118.628C36.4253 119.724 37.0423 121.211 37.0442 122.763ZM61.2373 158.653C60.0799 158.654 58.9482 158.311 57.9855 157.669C57.0229 157.026 56.2724 156.112 55.8292 155.043C55.3859 153.974 55.2697 152.797 55.4954 151.662C55.721 150.527 56.2783 149.484 57.0967 148.666C57.9152 147.847 58.958 147.29 60.0932 147.064C61.2285 146.839 62.4051 146.955 63.4743 147.398C64.5435 147.841 65.4573 148.592 66.0999 149.554C66.7425 150.517 67.0851 151.649 67.0844 152.806C67.0825 154.356 66.4658 155.843 65.3697 156.939C64.2736 158.035 62.7875 158.651 61.2373 158.653ZM122.762 146.956C123.92 146.955 125.051 147.297 126.014 147.94C126.976 148.582 127.727 149.496 128.17 150.565C128.614 151.634 128.73 152.81 128.505 153.945C128.279 155.081 127.722 156.123 126.904 156.942C126.086 157.761 125.044 158.318 123.909 158.544C122.774 158.77 121.597 158.655 120.528 158.212C119.459 157.769 118.545 157.019 117.902 156.057C117.259 155.095 116.915 153.964 116.915 152.806C116.917 151.256 117.534 149.769 118.63 148.673C119.726 147.576 121.212 146.959 122.762 146.956ZM122.902 119.075C122.902 120.09 122.498 121.064 121.781 121.782C121.063 122.5 120.09 122.904 119.075 122.906H64.9245C63.9088 122.905 62.9349 122.501 62.2167 121.783C61.4985 121.065 61.0945 120.091 61.0936 119.075V64.9247C61.0945 63.909 61.4985 62.9351 62.2167 62.2169C62.9349 61.4986 63.9088 61.0947 64.9245 61.0938H119.075C120.091 61.0947 121.065 61.4986 121.783 62.2169C122.501 62.9351 122.905 63.909 122.906 64.9247L122.902 119.075ZM152.806 128.61C151.649 128.61 150.517 128.268 149.554 127.625C148.592 126.982 147.841 126.069 147.398 125C146.955 123.93 146.838 122.754 147.064 121.618C147.29 120.483 147.847 119.44 148.665 118.622C149.484 117.803 150.527 117.246 151.662 117.021C152.797 116.795 153.974 116.911 155.043 117.354C156.112 117.798 157.026 118.548 157.669 119.511C158.311 120.473 158.654 121.605 158.653 122.763C158.65 124.312 158.033 125.798 156.937 126.894C155.842 127.99 154.356 128.607 152.806 128.61Z" fill="#DDB116"/>
</svg>
