<svg width="178" height="184" viewBox="0 0 178 184" fill="none" xmlns="http://www.w3.org/2000/svg">
    <g clip-path="url(#clip0_69_306)">
        <path d="M157.685 14.7081V7.26988C157.685 3.25687 154.424 0 150.4 0C146.391 0 143.149 3.25687 143.149 7.26988V14.6745H37.7881V7.26988C37.7881 3.25687 34.5388 0 30.5333 0C26.5165 0 23.2485 3.25687 23.2485 7.26988V14.6745H20.7029C-1.97521 14.6745 0.046277 40.7816 0.046277 40.7816V52.6709H1.59612H176.065H177.619V32.5272C177.619 32.5272 176.908 15.1237 157.685 14.7081ZM40.0454 33.2198C40.0454 34.2754 39.1919 35.1327 38.1512 35.1327H22.496C21.4366 35.1327 20.5942 34.2754 20.5942 33.2198V22.0641C20.5942 21.0197 21.4366 20.1699 22.496 20.1699H23.2485V20.4581C23.2485 24.475 26.5165 27.7205 30.5333 27.7205C34.5388 27.7205 37.7881 24.475 37.7881 20.4581V20.1699H38.1512C39.1919 20.1699 40.0454 21.0197 40.0454 22.0641V33.2198ZM159.953 33.2198C159.953 34.2754 159.104 35.1327 158.059 35.1327H142.404C141.356 35.1327 140.513 34.2754 140.513 33.2198V22.0641C140.513 21.0197 141.356 20.1699 142.404 20.1699H143.149V20.4581C143.149 24.475 146.391 27.7205 150.4 27.7205C154.424 27.7205 157.684 24.475 157.684 20.4581V20.1699H158.059C159.103 20.1699 159.953 21.0197 159.953 22.0641L159.953 33.2198Z" fill="#DDB116"/>
        <path d="M171.966 69.045V166.656C171.966 173.099 166.71 178.362 160.268 178.362H17.3937C10.9324 178.362 5.69907 173.099 5.69907 166.656V69.045H171.966ZM177.619 63.3923H177.465H0.196101H0.0463867V64.8073V166.656C0.0463867 176.206 7.85531 184 17.3937 184H160.268C169.81 184 177.619 176.206 177.619 166.656V64.8073V63.3923Z" fill="#DDB116"/>
        <path d="M157.827 77.2207H135.22V99.8164H157.827V77.2207Z" fill="#B7B7B7"/>
        <path d="M157.827 111.129H135.22V133.74H157.827V111.129Z" fill="#B7B7B7"/>
        <path d="M46.6828 145.038H24.0796V167.641H46.6828V145.038Z" fill="#B7B7B7"/>
        <path d="M46.6828 111.129H24.0796V133.74H46.6828V111.129Z" fill="#B7B7B7"/>
        <path d="M83.489 145.038H60.8857V167.641H83.489V145.038Z" fill="#B7B7B7"/>
        <path d="M83.7319 111.129H61.125V133.74H83.7319V111.129Z" fill="#B7B7B7"/>
        <path d="M84.3198 77.2207H61.7241V99.8164H84.3198V77.2207Z" fill="#B7B7B7"/>
        <path d="M120.302 145.038H97.6953V167.641H120.302V145.038Z" fill="#B7B7B7"/>
        <path d="M120.77 111.129H98.1709V133.74H120.77V111.129Z" fill="#B7B7B7"/>
        <path d="M121.081 77.2207H98.4702V99.8164H121.081V77.2207Z" fill="#B7B7B7"/>
        <path d="M47.5662 76.1575H22.8555V100.902H47.5662V76.1575Z" fill="#B7B7B7"/>
        <path d="M159.242 144.319H134.509V169.06H159.242V144.319Z" fill="#B7B7B7"/>
    </g>
    <defs>
        <clipPath id="clip0_69_306">
            <rect width="177.619" height="184" fill="white"/>
        </clipPath>
    </defs>
</svg>
