<svg width="178" height="174" viewBox="0 0 178 174" fill="none" xmlns="http://www.w3.org/2000/svg">
    <path d="M89 141.625C96.9391 141.625 103.375 135.189 103.375 127.25C103.375 119.311 96.9391 112.875 89 112.875C81.0609 112.875 74.625 119.311 74.625 127.25C74.625 135.189 81.0609 141.625 89 141.625Z" fill="#B7B7B7"/>
    <path d="M114.875 153.125C114.875 146.774 110.241 141.625 104.525 141.625H89H73.475C67.7595 141.625 63.125 146.774 63.125 153.125V173.25H114.875V153.125Z" fill="#B7B7B7"/>
    <path d="M91.6738 69.842C111.132 71.2191 126.375 87.5923 126.375 107.125H132.125C132.125 84.5879 114.533 65.6934 92.0763 64.1093L91.6738 69.842Z" fill="#DDB116"/>
    <path d="M46.8698 97.8847C46.2085 100.898 45.875 104.008 45.875 107.125H51.625C51.625 104.422 51.9154 101.726 52.4875 99.1152L46.8698 97.8847Z" fill="#DDB116"/>
    <path d="M147.949 71.2479C154.524 82.0435 158 94.452 158 107.125H163.75C163.75 93.3969 159.984 79.9563 152.86 68.2521L147.949 71.2479Z" fill="#DDB116"/>
    <path d="M14.25 107.125H20C20 69.0801 50.9551 38.125 89 38.125C94.6149 38.125 100.187 38.7977 105.56 40.1231L106.937 34.5427C101.115 33.1052 95.0806 32.375 89 32.375C47.784 32.375 14.25 65.9061 14.25 107.125Z" fill="#DDB116"/>
    <path d="M88.9999 3.625C77.8621 3.625 66.917 5.38162 56.4692 8.846L58.2805 14.3027C68.1417 11.0339 78.4774 9.375 88.9999 9.375C123.08 9.375 155.188 27.5249 172.789 56.7435L177.714 53.7794C159.078 22.8444 125.087 3.625 88.9999 3.625Z" fill="#DDB116"/>
    <path d="M13.5917 44.9043L9.15844 41.2444C5.90394 45.186 2.91969 49.4036 0.289062 53.7765L5.21681 56.7406C7.70081 52.6093 10.5183 48.6274 13.5917 44.9043Z" fill="#DDB116"/>
    <path d="M137.875 150.25H166.625C168.212 150.25 169.5 148.962 169.5 147.375V118.625C169.5 117.038 168.212 115.75 166.625 115.75H137.875C136.288 115.75 135 117.038 135 118.625V127.25L117.75 138.75H135V147.375C135 148.962 136.288 150.25 137.875 150.25Z" fill="#DDB116"/>
    <path d="M37.25 115.75H8.5C6.913 115.75 5.625 117.038 5.625 118.625V147.375C5.625 148.962 6.913 150.25 8.5 150.25H37.25C38.837 150.25 40.125 148.962 40.125 147.375V138.75H57.375L40.125 127.25V118.625C40.125 117.038 38.837 115.75 37.25 115.75Z" fill="#DDB116"/>
    <path d="M132.125 26.625C119.423 26.625 109.125 36.9232 109.125 49.625C109.125 62.3268 119.423 72.625 132.125 72.625C144.827 72.625 155.125 62.3268 155.125 49.625C155.125 36.9232 144.827 26.625 132.125 26.625ZM132.125 69.75C126.504 69.75 121.43 67.4414 117.779 63.7269C117.925 57.5054 122.991 52.5 129.25 52.5H132.125C127.361 52.5 123.5 48.6389 123.5 43.875C123.5 39.1111 127.361 35.25 132.125 35.25C136.889 35.25 140.75 39.1111 140.75 43.875C140.75 48.6389 136.889 52.5 132.125 52.5H135C141.259 52.5 146.325 57.5054 146.471 63.7269C142.82 67.4414 137.746 69.75 132.125 69.75Z" fill="#DDB116"/>
    <path d="M89 75.5C89 62.7982 78.7018 52.5 66 52.5C53.2982 52.5 43 62.7982 43 75.5C43 88.2018 53.2982 98.5 66 98.5C78.7018 98.5 89 88.2018 89 75.5ZM63.125 78.375H66C61.2361 78.375 57.375 74.5139 57.375 69.75C57.375 64.9861 61.2361 61.125 66 61.125C70.7639 61.125 74.625 64.9861 74.625 69.75C74.625 74.5139 70.7639 78.375 66 78.375H68.875C75.1339 78.375 80.1996 83.3804 80.3462 89.6019C76.695 93.3164 71.6206 95.625 66 95.625C60.3794 95.625 55.305 93.3164 51.6538 89.6019C51.8004 83.3804 56.8661 78.375 63.125 78.375Z" fill="#DDB116"/>
    <path d="M31.5 0.75C18.7982 0.75 8.5 11.0482 8.5 23.75C8.5 36.4518 18.7982 46.75 31.5 46.75C44.2018 46.75 54.5 36.4518 54.5 23.75C54.5 11.0482 44.2018 0.75 31.5 0.75ZM31.5 43.875C25.8794 43.875 20.805 41.5664 17.1538 37.8519C17.3004 31.6304 22.3661 26.625 28.625 26.625H31.5C26.7361 26.625 22.875 22.7639 22.875 18C22.875 13.2361 26.7361 9.375 31.5 9.375C36.2639 9.375 40.125 13.2361 40.125 18C40.125 22.7639 36.2639 26.625 31.5 26.625H34.375C40.6339 26.625 45.6996 31.6304 45.8462 37.8519C42.195 41.5664 37.1206 43.875 31.5 43.875Z" fill="#DDB116"/>
</svg>
