<svg width="151" height="184" viewBox="0 0 151 184" fill="none" xmlns="http://www.w3.org/2000/svg">
    <g clip-path="url(#clip0_69_294)">
        <path d="M150.118 172.342H2.27832V184H150.118V172.342Z" fill="#DDB116"/>
        <path d="M139.29 78.261H126.809V167.623H139.29V78.261Z" fill="#B7B7B7"/>
        <path d="M115.988 90.6127H103.5V167.623H115.988V90.6127Z" fill="#B7B7B7"/>
        <path d="M92.6756 102.411H80.1875V167.623H92.6756V102.411Z" fill="#B7B7B7"/>
        <path d="M69.3594 122.942H56.8711V167.623H69.3594V122.942Z" fill="#B7B7B7"/>
        <path d="M46.043 136.268H33.5547V167.623H46.043V136.268Z" fill="#B7B7B7"/>
        <path d="M22.7306 145.701H10.2495V167.623H22.7306V145.701Z" fill="#B7B7B7"/>
        <path d="M114.482 45.7951L131.553 52.4543L120.728 0L74.1031 31.6358L91.1699 39.1323C61.6184 110.731 0 141.263 0 141.263C91.5903 111.011 114.482 45.7951 114.482 45.7951Z" fill="#DDB116"/>
    </g>
    <defs>
        <clipPath id="clip0_69_294">
            <rect width="150.118" height="184" fill="white"/>
        </clipPath>
    </defs>
</svg>
