<svg width="184" height="184" viewBox="0 0 184 184" fill="none" xmlns="http://www.w3.org/2000/svg">
    <path d="M106.375 8.62501C93.4215 8.62137 80.7286 12.2652 69.7495 19.1393C58.7705 26.0135 49.9488 35.8402 44.2945 47.4945C38.6401 59.1488 36.3816 72.1597 37.7774 85.0378C39.1732 97.916 44.167 110.141 52.187 120.313L8.625 163.875L20.125 175.375L63.687 131.813C72.3292 138.626 82.4755 143.272 93.2792 145.365C104.083 147.458 115.23 146.937 125.792 143.845C136.353 140.753 146.021 135.179 153.99 127.59C161.958 120.001 167.996 110.615 171.6 100.217C175.203 89.8194 176.267 78.7105 174.703 67.8177C173.138 56.9249 168.992 46.5642 162.608 37.6003C156.225 28.6364 147.79 21.3292 138.008 16.2887C128.226 11.2482 117.38 8.62053 106.375 8.62501V8.62501Z" fill="#DDB116"/>
    <path d="M40.2503 132.25L8.62598 163.874L20.1263 175.375L51.7506 143.75L40.2503 132.25Z" fill="#444444"/>
    <path d="M46.0003 138L14.376 169.624L20.1251 175.373L51.7494 143.749L46.0003 138Z" fill="black"/>
    <path d="M106.375 132.25C136.544 132.25 161 107.794 161 77.625C161 47.4564 136.544 23 106.375 23C76.2064 23 51.75 47.4564 51.75 77.625C51.75 107.794 76.2064 132.25 106.375 132.25Z" fill="#D9DAE2"/>
    <path d="M146.625 94.875H69V100.625H146.625V94.875Z" fill="#DDB116"/>
    <path d="M89.125 74.75H77.625V97.75H89.125V74.75Z" fill="#B7B7B7"/>
    <path d="M112.125 57.5H100.625V97.75H112.125V57.5Z" fill="#B7B7B7"/>
    <path d="M135.125 51.75H123.625V97.75H135.125V51.75Z" fill="#B7B7B7"/>
    <path d="M46 138L51.75 143.75L63.6985 131.801C61.5619 130.122 59.5267 128.317 57.6035 126.396L46 138Z" fill="#D9DAE2"/>
    <path d="M106.375 20.125C95.0026 20.125 83.8856 23.4973 74.4297 29.8155C64.9739 36.1337 57.604 45.1139 53.252 55.6207C48.8999 66.1275 47.7612 77.6888 49.9799 88.8427C52.1985 99.9966 57.6749 110.242 65.7164 118.284C73.7579 126.325 84.0034 131.802 95.1573 134.02C106.311 136.239 117.873 135.1 128.379 130.748C138.886 126.396 147.866 119.026 154.185 109.57C160.503 100.114 163.875 88.9974 163.875 77.625C163.858 62.3804 157.794 47.7652 147.014 36.9857C136.235 26.2061 121.62 20.1425 106.375 20.125V20.125ZM106.375 129.375C96.1398 129.375 86.1345 126.34 77.6243 120.654C69.114 114.967 62.4811 106.885 58.5643 97.4289C54.6474 87.9728 53.6226 77.5676 55.6194 67.5291C57.6162 57.4906 62.5449 48.2696 69.7822 41.0322C77.0196 33.7949 86.2406 28.8661 96.2791 26.8694C106.318 24.8726 116.723 25.8974 126.179 29.8142C135.635 33.7311 143.717 40.364 149.404 48.8742C155.09 57.3845 158.125 67.3898 158.125 77.625C158.109 91.345 152.652 104.499 142.95 114.2C133.249 123.902 120.095 129.359 106.375 129.375V129.375Z" fill="#DDB116"/>
    <path d="M106.375 5.75C87.319 5.77131 69.0497 13.3507 55.5751 26.8252C42.1005 40.2998 34.5212 58.5691 34.4999 77.625C34.4475 92.8917 39.3136 107.769 48.3775 120.054L6.59225 161.842C6.05327 162.382 5.75049 163.113 5.75049 163.875C5.75049 164.637 6.05327 165.368 6.59225 165.908L18.0922 177.408C18.6314 177.947 19.3625 178.249 20.1249 178.249C20.8872 178.249 21.6184 177.947 22.1575 177.408L63.9427 135.622C76.2291 144.686 91.1074 149.552 106.375 149.5C125.437 149.5 143.719 141.927 157.198 128.448C170.677 114.969 178.25 96.6874 178.25 77.625C178.25 58.5626 170.677 40.2809 157.198 26.8017C143.719 13.3225 125.437 5.75 106.375 5.75V5.75ZM20.1249 171.31L12.6901 163.875L40.2499 136.315L47.6846 143.75L20.1249 171.31ZM106.375 143.75C91.5225 143.799 77.0956 138.792 65.4665 129.553C64.9134 129.118 64.2198 128.901 63.5172 128.942C62.8146 128.984 62.1517 129.282 61.6542 129.78L51.7499 139.685L44.3151 132.25L54.2195 122.346C54.717 121.848 55.0147 121.185 55.056 120.482C55.0973 119.779 54.8795 119.086 54.4437 118.533C45.2064 106.904 40.2009 92.4769 40.2499 77.625C40.2499 64.5467 44.128 51.7621 51.3939 40.8879C58.6599 30.0137 68.9872 21.5383 81.0699 16.5335C93.1527 11.5286 106.448 10.2191 119.275 12.7706C132.102 15.322 143.885 21.6198 153.132 30.8676C162.38 40.1153 168.678 51.8977 171.229 64.7247C173.781 77.5516 172.471 90.8472 167.466 102.93C162.462 115.013 153.986 125.34 143.112 132.606C132.238 139.872 119.453 143.75 106.375 143.75V143.75Z" fill="#DDB116"/>
</svg>
