<svg width="184" height="135" viewBox="0 0 184 135" fill="none" xmlns="http://www.w3.org/2000/svg">
    <path d="M105.825 102.956C103.065 102.519 103.002 95.0072 103.002 95.0072C103.002 95.0072 111.109 87.0516 112.873 76.3585C117.624 76.3585 120.559 64.9874 115.805 60.9867C116.008 56.7753 121.911 27.9336 92.0001 27.9336C62.0923 27.9336 68.0015 56.7753 68.1989 60.9867C63.4479 64.9874 66.3827 76.3585 71.1337 76.3585C72.8972 87.0516 81.0043 95.0072 81.0043 95.0072C81.0043 95.0072 80.9384 102.519 78.1813 102.956C69.2978 104.361 36.1328 118.861 36.1328 134.766H92.0001H147.874C147.874 118.861 114.709 104.361 105.825 102.956Z" fill="#B7B7B7"/>
    <path d="M50.0568 105.493C56.4759 101.545 64.2638 97.8861 70.6533 95.6784C68.3601 92.4245 65.8069 87.9793 64.2046 82.7249C61.9672 80.8957 60.1378 78.2765 58.9633 75.072C57.7952 71.8508 57.3478 68.2547 57.7163 64.935C57.9763 62.5463 58.6573 60.3221 59.697 58.3743C59.0686 51.59 58.6178 38.2878 67.3302 28.5851C70.7125 24.8211 74.9766 22.1165 80.0928 20.4879C79.1749 11.055 74.3943 0 55.8738 0C25.9595 0 31.8687 28.8417 32.0693 33.0531C27.3184 37.0474 30.2532 48.4248 35.0042 48.4248C36.771 59.1113 44.8714 67.0668 44.8714 67.0668C44.8714 67.0668 44.8056 74.5817 42.0518 75.0225C33.165 76.4209 0 90.9208 0 106.832H47.9576C48.6453 106.381 49.3395 105.941 50.0568 105.493Z" fill="#DDB116"/>
    <path d="M136.046 106.832H184C184 90.9208 150.835 76.4209 141.945 75.0225C139.198 74.5817 139.132 67.0668 139.132 67.0668C139.132 67.0668 147.236 59.1113 149.002 48.4248C153.754 48.4248 156.688 37.0474 151.937 33.0531C152.135 28.8417 158.044 0 128.13 0C109.609 0 104.825 11.055 103.907 20.4879C109.03 22.1165 113.294 24.8211 116.67 28.5851C125.382 38.2878 124.932 51.59 124.306 58.3743C125.349 60.3221 126.027 62.5463 126.287 64.935C126.659 68.2547 126.208 71.8508 125.04 75.072C123.862 78.2765 122.039 80.8957 119.799 82.7249C118.193 87.9793 115.637 92.4245 113.347 95.6784C119.736 97.8861 127.531 101.545 133.943 105.493C134.661 105.941 135.361 106.381 136.046 106.832Z" fill="#DDB116"/>
</svg>
